<mxfile host="app.diagrams.net" agent="Mozilla/5.0 (Windows NT 10.0; Win64; x64) AppleWebKit/537.36 (KHTML, like Gecko) Chrome/139.0.0.0 Safari/537.36" version="28.2.1">
  <diagram id="btAE_-_hUQ5S04I6Qsx8" name="ページ1">
    <mxGraphModel dx="683" dy="403" grid="1" gridSize="10" guides="1" tooltips="1" connect="1" arrows="1" fold="1" page="1" pageScale="1" pageWidth="827" pageHeight="1169" math="0" shadow="0">
      <root>
        <mxCell id="0" />
        <mxCell id="1" parent="0" />
        <mxCell id="2" value="RoboDog" style="rounded=0;whiteSpace=wrap;html=1;" parent="1" vertex="1">
          <mxGeometry x="280" y="30" width="120" height="60" as="geometry" />
        </mxCell>
        <mxCell id="VhbI3dYKaryPDNbT-vxW-2" value="名前" style="rounded=0;whiteSpace=wrap;html=1;" vertex="1" parent="1">
          <mxGeometry x="40" y="150" width="120" height="60" as="geometry" />
        </mxCell>
        <mxCell id="VhbI3dYKaryPDNbT-vxW-3" value="挨拶" style="rounded=0;whiteSpace=wrap;html=1;" vertex="1" parent="1">
          <mxGeometry x="280" y="150" width="120" height="60" as="geometry" />
        </mxCell>
        <mxCell id="VhbI3dYKaryPDNbT-vxW-4" value="時刻" style="rounded=0;whiteSpace=wrap;html=1;" vertex="1" parent="1">
          <mxGeometry x="160" y="150" width="120" height="60" as="geometry" />
        </mxCell>
        <mxCell id="VhbI3dYKaryPDNbT-vxW-5" value="" style="endArrow=none;html=1;rounded=0;startArrow=diamondThin;startFill=0;endSize=17;strokeWidth=1;startSize=15;exitX=0;exitY=1;exitDx=0;exitDy=0;entryX=0.5;entryY=0;entryDx=0;entryDy=0;" edge="1" parent="1" source="2" target="VhbI3dYKaryPDNbT-vxW-2">
          <mxGeometry width="50" height="50" relative="1" as="geometry">
            <mxPoint x="100" y="150" as="sourcePoint" />
            <mxPoint x="100" y="140" as="targetPoint" />
          </mxGeometry>
        </mxCell>
        <mxCell id="VhbI3dYKaryPDNbT-vxW-6" value="" style="endArrow=none;html=1;rounded=0;startArrow=diamondThin;startFill=0;endSize=17;strokeWidth=1;startSize=15;exitX=0.5;exitY=1;exitDx=0;exitDy=0;entryX=0.5;entryY=0;entryDx=0;entryDy=0;" edge="1" parent="1" source="2" target="VhbI3dYKaryPDNbT-vxW-3">
          <mxGeometry width="50" height="50" relative="1" as="geometry">
            <mxPoint x="350" y="80" as="sourcePoint" />
            <mxPoint x="290" y="130" as="targetPoint" />
          </mxGeometry>
        </mxCell>
        <mxCell id="VhbI3dYKaryPDNbT-vxW-7" value="" style="endArrow=none;html=1;rounded=0;startArrow=diamondThin;startFill=0;endSize=17;strokeWidth=1;startSize=15;exitX=0.333;exitY=1;exitDx=0;exitDy=0;entryX=0.5;entryY=0;entryDx=0;entryDy=0;exitPerimeter=0;" edge="1" parent="1" source="2" target="VhbI3dYKaryPDNbT-vxW-4">
          <mxGeometry width="50" height="50" relative="1" as="geometry">
            <mxPoint x="240" y="110" as="sourcePoint" />
            <mxPoint x="180" y="160" as="targetPoint" />
          </mxGeometry>
        </mxCell>
        <mxCell id="VhbI3dYKaryPDNbT-vxW-8" value="2つの整数" style="rounded=0;whiteSpace=wrap;html=1;" vertex="1" parent="1">
          <mxGeometry x="400" y="150" width="120" height="60" as="geometry" />
        </mxCell>
        <mxCell id="VhbI3dYKaryPDNbT-vxW-9" value="" style="endArrow=none;html=1;rounded=0;startArrow=diamondThin;startFill=0;endSize=17;strokeWidth=1;startSize=15;exitX=0.75;exitY=1;exitDx=0;exitDy=0;entryX=0.5;entryY=0;entryDx=0;entryDy=0;" edge="1" parent="1" target="VhbI3dYKaryPDNbT-vxW-8" source="2">
          <mxGeometry width="50" height="50" relative="1" as="geometry">
            <mxPoint x="384" y="110.00000000000006" as="sourcePoint" />
            <mxPoint x="444" y="170" as="targetPoint" />
          </mxGeometry>
        </mxCell>
        <mxCell id="VhbI3dYKaryPDNbT-vxW-10" value="足し算の結果" style="rounded=0;whiteSpace=wrap;html=1;" vertex="1" parent="1">
          <mxGeometry x="520" y="150" width="120" height="60" as="geometry" />
        </mxCell>
        <mxCell id="VhbI3dYKaryPDNbT-vxW-11" value="" style="endArrow=none;html=1;rounded=0;startArrow=diamondThin;startFill=0;endSize=17;strokeWidth=1;startSize=15;exitX=1;exitY=1;exitDx=0;exitDy=0;entryX=0.5;entryY=0;entryDx=0;entryDy=0;" edge="1" parent="1" target="VhbI3dYKaryPDNbT-vxW-10" source="2">
          <mxGeometry width="50" height="50" relative="1" as="geometry">
            <mxPoint x="440" y="220" as="sourcePoint" />
            <mxPoint x="380" y="260" as="targetPoint" />
          </mxGeometry>
        </mxCell>
        <mxCell id="VhbI3dYKaryPDNbT-vxW-12" value="ドメインモデル＝名刺リストを線で結んだもの" style="text;html=1;align=center;verticalAlign=middle;resizable=0;points=[];autosize=1;strokeColor=none;fillColor=none;fontStyle=1" vertex="1" parent="1">
          <mxGeometry x="30" width="280" height="30" as="geometry" />
        </mxCell>
      </root>
    </mxGraphModel>
  </diagram>
</mxfile>
